<?xml version="1.0" standalone="no"?>
<!DOCTYPE svg PUBLIC "-//W3C//DTD SVG 20010904//EN"
 "http://www.w3.org/TR/2001/REC-SVG-20010904/DTD/svg10.dtd">
<svg version="1.0" xmlns="http://www.w3.org/2000/svg"
 width="512.000000pt" height="162.000000pt" viewBox="0 0 512.000000 162.000000"
 preserveAspectRatio="xMidYMid meet">

<g transform="translate(0.000000,162.000000) scale(0.100000,-0.100000)"
fill="#000000" stroke="none">
<path d="M2620 1600 c-40 -40 -12 -120 43 -120 41 0 67 27 67 70 0 29 -6 43
-22 54 -31 22 -64 20 -88 -4z"/>
<path d="M1510 1470 c0 -77 -3 -140 -6 -140 -3 0 -18 9 -34 20 -47 33 -110 45
-163 30 -173 -48 -236 -264 -118 -401 71 -84 187 -104 274 -49 41 25 47 27 47
12 0 -28 21 -42 62 -42 l38 0 0 355 0 355 -50 0 -50 0 0 -140z m-63 -200 c49
-29 68 -65 68 -130 0 -90 -56 -150 -140 -150 -80 0 -139 63 -139 150 0 117
116 189 211 130z"/>
<path d="M3190 1465 c0 -80 -4 -145 -9 -145 -5 0 -14 7 -22 16 -23 28 -71 46
-128 47 -61 1 -106 -17 -154 -62 -120 -110 -89 -330 56 -400 73 -35 187 -24
226 23 13 16 15 15 27 -13 12 -28 17 -31 59 -31 l45 0 0 355 0 355 -50 0 -50
0 0 -145z m-69 -190 c45 -24 69 -70 69 -135 0 -67 -23 -110 -73 -133 -114 -54
-227 39 -203 168 8 38 48 92 80 105 34 14 95 11 127 -5z"/>
<path d="M3832 1390 c-41 -25 -66 -81 -58 -130 3 -19 6 -239 6 -488 0 -493 -1
-489 57 -528 23 -15 53 -20 166 -24 l137 -5 -30 -63 c-35 -75 -37 -105 -10
-132 47 -47 85 -18 140 105 l44 95 151 0 151 0 44 -92 c53 -107 62 -118 100
-118 65 0 77 57 30 150 l-30 60 95 0 95 0 0 -105 0 -105 56 0 c50 0 60 4 89
33 24 24 35 46 40 78 3 24 5 237 3 474 -3 479 -4 486 -70 522 -30 17 -77 18
-603 23 -313 3 -535 6 -492 8 60 2 77 5 77 17 0 38 46 147 81 194 l39 51 -138
0 c-120 0 -141 -3 -170 -20z m13 -228 c11 -6 15 -12 8 -12 -7 0 -22 10 -35 23
-13 12 -17 17 -8 11 8 -6 24 -16 35 -22z"/>
<path d="M180 1375 c-105 -33 -160 -114 -160 -236 0 -99 35 -164 113 -209 81
-47 174 -42 234 12 21 20 21 20 28 -4 10 -31 23 -38 68 -38 l37 0 0 241 0 240
-52 -3 c-50 -3 -53 -5 -56 -31 l-3 -28 -30 25 c-28 24 -88 47 -119 45 -8 0
-35 -7 -60 -14z m178 -128 c30 -30 36 -44 40 -90 8 -99 -48 -167 -138 -167
-83 0 -140 62 -140 152 0 129 148 195 238 105z"/>
<path d="M793 1375 c-17 -7 -41 -23 -52 -34 l-21 -21 0 30 c0 29 -1 30 -50 30
l-50 0 0 -228 c0 -164 3 -231 12 -240 7 -7 29 -12 50 -12 l38 0 0 138 c0 123
2 143 23 182 36 72 110 93 164 46 28 -24 28 -24 31 -168 3 -192 2 -188 57
-188 l45 0 0 173 c0 162 -2 177 -23 217 -40 77 -142 111 -224 75z"/>
<path d="M1730 1150 c0 -221 1 -230 20 -240 12 -6 35 -10 53 -8 l32 3 5 150
c3 95 10 158 18 172 18 32 69 56 108 51 l34 -4 0 53 0 53 -35 0 c-43 0 -88
-22 -109 -52 -16 -22 -16 -22 -16 15 l0 37 -55 0 -55 0 0 -230z"/>
<path d="M2172 1354 c-118 -59 -165 -198 -108 -320 43 -92 154 -154 249 -139
208 34 286 277 135 422 -71 69 -183 84 -276 37z m177 -92 c50 -27 73 -75 68
-140 -10 -130 -154 -176 -246 -78 -33 35 -40 117 -13 165 22 41 74 71 122 71
19 0 51 -8 69 -18z"/>
<path d="M2617 1374 c-4 -4 -7 -105 -7 -225 0 -245 1 -249 71 -249 l39 0 -2
238 -3 237 -45 3 c-25 2 -49 0 -53 -4z"/>
<path d="M2592 710 c-31 -29 -29 -73 4 -99 34 -26 54 -26 82 -1 28 26 29 73 2
100 -26 26 -60 25 -88 0z"/>
<path d="M2370 575 c0 -80 -4 -145 -9 -145 -5 0 -14 7 -22 16 -41 50 -156 60
-230 21 -153 -81 -168 -315 -27 -417 80 -58 181 -60 247 -4 l30 25 3 -28 c3
-26 6 -28 56 -31 l52 -3 0 355 0 356 -50 0 -50 0 0 -145z m-72 -189 c15 -8 37
-32 50 -54 38 -67 24 -149 -33 -202 -22 -21 -37 -25 -85 -25 -48 0 -63 4 -85
25 -56 51 -70 131 -35 200 11 22 32 46 48 54 35 19 105 20 140 2z"/>
<path d="M1160 555 l0 -65 -50 0 -50 0 0 -45 0 -45 44 0 44 0 4 -142 c4 -160
14 -194 71 -229 25 -15 47 -19 102 -17 l70 3 3 47 3 48 -30 -6 c-37 -8 -74 1
-95 22 -13 12 -16 41 -16 145 l0 129 70 0 70 0 0 45 0 45 -70 0 -70 0 0 65 0
65 -50 0 -50 0 0 -65z"/>
<path d="M733 481 c-71 -33 -96 -94 -68 -166 21 -57 51 -77 150 -104 93 -26
105 -34 105 -72 0 -35 -23 -49 -80 -49 -30 0 -47 6 -65 25 -14 13 -25 29 -25
35 0 6 -24 10 -56 10 l-56 0 6 -28 c24 -101 169 -158 291 -115 64 23 95 67 95
134 0 67 -38 110 -117 133 -120 36 -143 47 -149 72 -8 30 9 51 46 59 32 7 84
-15 93 -40 8 -18 107 -22 107 -4 0 28 -35 81 -67 100 -50 31 -154 36 -210 10z"/>
<path d="M2946 486 c-49 -18 -113 -79 -137 -131 -22 -48 -25 -151 -5 -199 19
-47 73 -104 120 -129 57 -30 165 -30 222 0 93 49 153 161 139 258 -11 67 -61
144 -119 179 -39 25 -62 31 -115 33 -40 2 -82 -3 -105 -11z m163 -115 c94 -67
91 -192 -5 -249 -124 -73 -267 67 -200 195 38 75 139 101 205 54z"/>
<path d="M1472 313 c3 -161 6 -182 26 -220 51 -97 177 -122 257 -51 l35 30 0
-31 0 -32 53 3 52 3 3 238 2 237 -55 0 -55 0 0 -140 c0 -155 -9 -192 -55 -228
-37 -29 -86 -28 -122 2 l-28 24 -3 171 -3 171 -56 0 -55 0 4 -177z"/>
<path d="M2590 250 l0 -240 50 0 50 0 0 240 0 240 -50 0 -50 0 0 -240z"/>
</g>
</svg>
